<?xml version="1.0" encoding="utf-8"?>
<!-- Generator: Adobe Illustrator 19.0.0, SVG Export Plug-In . SVG Version: 6.00 Build 0)  -->
<svg version="1.1" id="Layer_1" xmlns="http://www.w3.org/2000/svg" xmlns:xlink="http://www.w3.org/1999/xlink" x="0px" y="0px"
	 viewBox="712.5 195 435.7 223" style="enable-background:new 712.5 195 435.7 223;" xml:space="preserve">
<style type="text/css">
	.st0{fill:#2D2B6F;}
	.st1{fill:#DF3B28;}
</style>
<g id="XMLID_1_">
	<g id="XMLID_16_">
		<g id="XMLID_17_">
			<g id="XMLID_29_">
				<path id="XMLID_40_" class="st0" d="M947.8,304.9c-2.1-1.9-4.8-2.8-8.2-2.8h-13.9v31.8h4.8v-11.6h9.1c3.4,0,6.1-0.9,8.2-2.8
					c2-1.8,3.1-4.3,3.1-7.3C950.9,309.2,949.8,306.8,947.8,304.9z M939.6,317.9h-9.1v-11.3h9.1c3.9,0,6.5,2.2,6.5,5.7
					C946.1,315.7,943.5,317.9,939.6,317.9z"/>
				<path id="XMLID_39_" class="st0" d="M974.3,319.9c0,3-0.8,5.5-2.4,7.2c-1.6,1.8-3.6,2.7-6.2,2.7c-2.6,0-4.7-0.9-6.3-2.7
					c-1.6-1.8-2.4-4.2-2.4-7.2v-17.8h-4.8v17.8c0,4.3,1.3,7.8,3.7,10.5c2.4,2.7,5.7,4.1,9.8,4.1c4,0,7.3-1.4,9.7-4.1
					c2.4-2.6,3.6-6.2,3.6-10.5v-17.8h-4.8L974.3,319.9L974.3,319.9z"/>
				<polygon id="XMLID_38_" class="st0" points="1005.1,325.6 985.9,302.1 982,302.1 982,333.9 986.8,333.9 986.8,310.7 
					1005.9,333.9 1009.9,333.9 1009.9,302.1 1005.1,302.1 				"/>
				<path id="XMLID_37_" class="st0" d="M1035.6,302.1h-16.3v4.4h11.5v15.6c0,2.3-0.7,4.2-2,5.7c-1.3,1.5-3,2.2-5.1,2.2
					c-3.9,0-6.6-2.6-7.1-6.8l-0.1-0.7l-4.6,1l0.1,0.5c0.9,6.3,5.5,10.4,11.7,10.4c3.5,0,6.4-1.2,8.7-3.5c2.2-2.3,3.3-5.3,3.3-8.9
					V302.1z"/>
				<path id="XMLID_34_" class="st0" d="M1048.7,302.1l-14.2,31.8h5.2l3.4-7.8h15.3l3.4,7.8h5.2l-14.2-31.8H1048.7z M1056.5,321.7
					h-11.5l5.8-13L1056.5,321.7z"/>
				<path id="XMLID_30_" class="st0" d="M1088.8,317.6c2.3-1.2,3.8-3.8,3.8-6.8c0-5.2-3.8-8.6-9.7-8.6h-14.7v31.8h15.3
					c6.2,0,10.1-3.4,10.1-8.9C1093.6,321.5,1091.7,318.7,1088.8,317.6z M1082.8,315.8h-9.8v-9.4h9.5c3.3,0,5.4,1.7,5.4,4.5
					C1088,313.9,1085.9,315.8,1082.8,315.8z M1073,319.9h10.2c3.4,0,5.5,1.9,5.5,4.7c0,3-2.1,4.9-5.6,4.9H1073V319.9z"/>
			</g>
			<g id="XMLID_18_">
				<path id="XMLID_28_" class="st0" d="M951.6,357.3c-1.5,4.7-5.3,7.4-10.5,7.4c-3.3,0-6-1.2-8.3-3.5c-2.3-2.3-3.4-5.1-3.4-8.4
					c0-3.3,1.1-6.2,3.4-8.5c2.2-2.3,5-3.4,8.3-3.4c5.2,0,9.1,2.7,10.5,7.3l0.2,0.6l4.6-1.3l-0.2-0.6c-1-3.2-2.9-5.8-5.6-7.7
					c-2.7-1.9-6-2.8-9.6-2.8c-4.6,0-8.5,1.6-11.7,4.8c-3.2,3.2-4.8,7.1-4.8,11.7s1.6,8.5,4.8,11.7c3.2,3.2,7.1,4.8,11.7,4.8
					c3.7,0,6.9-1,9.6-2.9c2.7-1.9,4.6-4.6,5.6-7.9l0.2-0.6l-4.6-1.1L951.6,357.3z"/>
				<path id="XMLID_25_" class="st0" d="M973.8,336.3c-4.6,0-8.5,1.6-11.7,4.8c-3.2,3.2-4.8,7.1-4.8,11.7s1.6,8.5,4.8,11.7
					c3.2,3.2,7.1,4.8,11.7,4.8c4.6,0,8.5-1.6,11.7-4.8c3.1-3.1,4.7-7.1,4.7-11.7c0-4.6-1.6-8.6-4.7-11.7
					C982.3,337.9,978.3,336.3,973.8,336.3z M982,361.2c-2.2,2.3-4.9,3.4-8.2,3.4c-3.3,0-6.1-1.2-8.3-3.4c-2.2-2.3-3.3-5.1-3.3-8.4
					c0-3.3,1.1-6.2,3.4-8.5c2.2-2.3,5-3.4,8.3-3.4c3.3,0,6,1.1,8.2,3.4c2.2,2.3,3.4,5.2,3.4,8.5C985.3,356.1,984.2,359,982,361.2
					L982,361.2z"/>
				<polygon id="XMLID_24_" class="st0" points="996.7,336.9 991.9,336.9 991.9,368.7 1014.2,368.7 1014.2,364.2 996.7,364.2 				
					"/>
				<polygon id="XMLID_23_" class="st0" points="1020.7,336.9 1015.9,336.9 1015.9,368.7 1038.3,368.7 1038.3,364.2 1020.7,364.2 
									"/>
				<polygon id="XMLID_22_" class="st0" points="1044.7,354.9 1062.1,354.9 1062.1,350.5 1044.7,350.5 1044.7,341.3 1063.4,341.3 
					1063.4,336.9 1039.9,336.9 1039.9,368.7 1063.5,368.7 1063.5,364.2 1044.7,364.2 				"/>
				<path id="XMLID_21_" class="st0" d="M1096.7,350.7h-18.1v4.5h13.4c-0.4,2.7-1.6,4.9-3.5,6.7c-2,1.9-4.6,2.9-7.6,2.9
					c-3.3,0-6.1-1.2-8.3-3.5c-2.3-2.3-3.4-5.1-3.4-8.4c0-3.3,1.1-6.2,3.4-8.5c2.2-2.3,5-3.4,8.3-3.4c4.9,0,8.7,2.2,10.7,6.3l0.2,0.5
					l4.3-1.5l-0.2-0.6c-2.3-5.7-8-9.2-15-9.2c-4.6,0-8.5,1.6-11.7,4.8c-3.2,3.2-4.8,7.1-4.8,11.7c0,4.6,1.6,8.5,4.8,11.7
					c3.2,3.2,7.1,4.8,11.8,4.8c4.7,0,8.5-1.6,11.5-4.8c3-3.1,4.5-7,4.5-11.7c0-0.7,0-1.2,0-1.6L1096.7,350.7z"/>
				<polygon id="XMLID_20_" class="st0" points="1103.3,354.9 1120.7,354.9 1120.7,350.5 1103.3,350.5 1103.3,341.3 1122,341.3 
					1122,336.9 1098.5,336.9 1098.5,368.7 1122,368.7 1122,364.2 1103.3,364.2 				"/>
				<path id="XMLID_19_" class="st0" d="M1140,351.1l-6.7-1.5c-2.9-0.6-4.1-1.8-4.1-4c0-2.9,2.6-4.9,6.3-4.9c3.9,0,6.7,2.1,7.4,5.6
					l0.1,0.6l4.8-1.1l-0.1-0.6c-1.1-5.5-5.7-8.9-12.1-8.9c-3.4,0-6.2,0.9-8.2,2.6c-2.2,1.7-3.2,4-3.2,6.8c0,4.4,2.6,7.2,7.8,8.4
					l6.9,1.5c3.4,0.7,4.5,1.8,4.5,4.2c0,3.2-2.6,5.1-6.8,5.1c-4.6,0-7.7-2.3-8.4-6.2l-0.1-0.6l-4.9,1l0.1,0.6c0.4,3,1.8,5.4,4.3,7.1
					c2.4,1.7,5.3,2.6,8.8,2.6c3.6,0,6.5-0.9,8.6-2.6c2.2-1.8,3.3-4.2,3.3-7.1C1148.2,355.1,1145.5,352.2,1140,351.1z"/>
			</g>
		</g>
	</g>
	<g id="XMLID_13_">
		<path id="XMLID_14_" class="st1" d="M764.6,243.5L764.6,243.5l7.1-4.2l0,0v81.3l4.7,2.7l19,11l0.2,0.1l2.2,1.2l2.4-1.4l0,0l19-11
			l4-2.3l0.8-0.5v-81.3l0,0l7.1,4.2l0,0v41.7l4.7-2.7v-41.6l-4.7-2.8l-7.1-4.2l0,0l-4.7-2.8v86.8l-19,11v0h0v-11.1l0,0l7.1-4.1
			l4.7-2.7v-84l-2.2-1.3l-2.6-1.5v0l0,0v84.1l-7.1,4.1v0h0V196.4l-2.4-1.4l-2.4,1.4v115.8l0,0l-7.1-4.1V224l0,0l-4.7,2.8v84l4.7,2.7
			l7.1,4.1l0,0v11.1l0,0l-19-11V231l0,0l-4.8,2.8l-7.1,4.2l-4.7,2.8v41.5l4.7,2.7V243.5z"/>
	</g>
	<path id="XMLID_2_" class="st0" d="M871.6,308.8L871.6,308.8l-0.1-13.8l-11.8,6.8l-0.1,0v-13.9l-4.7,2.7l-7.1,4.1v-13.7l-11.8,6.8
		l-4.7,2.7v36.9l0,0l-30.9,17.8l-2.4,1.4l-2.4-1.4l-30.9-17.8v-36.9l-16.6-9.6v13.7l-0.1,0l-7.1-4.1l-4.7-2.7v13.9l-0.1-0.1l-7-4.1
		l-4.7-2.7v13.8l-0.1-0.1l-7-4l-4.7-2.7v66.6l4.7,2.7l78.3,45.2l0,0l2.4,1.4l0,0l2.4-1.4l8.7-5l69.7-40.2l4.7-2.7V302L871.6,308.8z
		 M859.6,307.3L859.6,307.3L859.6,307.3l7.1-4.1v53.2l-66.5,38.3v-10.9l59.3-34.3V307.3z M847.8,300.3L847.8,300.3l7.1-4.1v50.5
		l-54.6,31.6v-11l47.5-27.3V300.3z M831.2,333l4.7-2.7l0,0v-36.9l7.1-4.1v47.9l-8.3,4.8l-34.4,19.8v-10.9L831.2,333z M795.5,411.1
		L795.5,411.1l-78.3-45.2v-55.7l7.1,4.1v44.8l4.7,2.7l66.4,38.3l0,0V411.1L795.5,411.1z M795.5,394.7L795.5,394.7l-66.5-38.3v-53.2
		l7.1,4.1v42.1l4.7,2.7l54.6,31.6l0,0V394.7L795.5,394.7z M795.5,378.3L795.5,378.3l-54.6-31.6v-50.5l7.1,4.1v39.6l4.7,2.7
		l42.7,24.6l0,0V378.3L795.5,378.3z M795.5,361.7L795.5,361.7l-42.7-24.6v-47.9l7.1,4.1v36.9l4.7,2.7l30.9,17.8l0,0V361.7
		L795.5,361.7z M800.3,411.1v-11l43.2-24.9l23.3-13.4l4.7-2.7v-44.8l0.1,0l7-4.1v55.7l-35.9,20.7L800.3,411.1z"/>
</g>
</svg>
